<svg width="21" height="21" viewBox="0 0 21 21" fill="none" xmlns="http://www.w3.org/2000/svg">
<path fill-rule="evenodd" clip-rule="evenodd" d="M7.278 0.219453C7.38312 0.324547 7.45465 0.458508 7.48349 0.604329C7.51234 0.750149 7.4972 0.901252 7.44 1.03845C6.98282 2.13567 6.74828 3.3128 6.75 4.50145C6.75 6.8884 7.69821 9.17759 9.38604 10.8654C11.0739 12.5532 13.3631 13.5015 15.75 13.5015C16.9386 13.5032 18.1158 13.2686 19.213 12.8115C19.3501 12.7544 19.5011 12.7392 19.6468 12.768C19.7925 12.7968 19.9263 12.8682 20.0314 12.9732C20.1365 13.0782 20.208 13.212 20.237 13.3576C20.2659 13.5033 20.251 13.6543 20.194 13.7915C19.396 15.7047 18.0497 17.339 16.3247 18.4886C14.5996 19.6381 12.573 20.2515 10.5 20.2515C4.701 20.2515 0 15.5515 0 9.75145C0 5.38345 2.667 1.63945 6.46 0.0574534C6.59707 0.000472963 6.74797 -0.0145491 6.89359 0.0142894C7.03921 0.0431279 7.17299 0.11453 7.278 0.219453Z" fill="black"/>
</svg>
