<svg width="20" height="10" viewBox="0 0 20 10" fill="none" xmlns="http://www.w3.org/2000/svg">
<path fill-rule="evenodd" clip-rule="evenodd" d="M5.02934 0.21934C5.16979 0.359965 5.24868 0.550589 5.24868 0.74934C5.24868 0.948091 5.16979 1.13871 5.02934 1.27934L2.55934 3.74934H18.7493C18.9483 3.74934 19.139 3.82836 19.2797 3.96901C19.4203 4.10966 19.4993 4.30043 19.4993 4.49934C19.4993 4.69825 19.4203 4.88902 19.2797 5.02967C19.139 5.17032 18.9483 5.24934 18.7493 5.24934H2.55934L5.02934 7.71934C5.10303 7.788 5.16213 7.8708 5.20312 7.9628C5.24411 8.0548 5.26615 8.15412 5.26793 8.25482C5.26971 8.35552 5.25118 8.45555 5.21346 8.54894C5.17574 8.64232 5.1196 8.72716 5.04838 8.79838C4.97716 8.8696 4.89233 8.92574 4.79894 8.96346C4.70555 9.00118 4.60552 9.01971 4.50482 9.01793C4.40411 9.01615 4.3048 8.99411 4.2128 8.95312C4.1208 8.91213 4.038 8.85303 3.96934 8.77934L0.21934 5.02934C0.0788896 4.88871 0 4.69809 0 4.49934C0 4.30059 0.0788896 4.10997 0.21934 3.96934L3.96934 0.21934C4.10997 0.0788894 4.30059 0 4.49934 0C4.69809 0 4.88871 0.0788894 5.02934 0.21934Z" fill="black"/>
</svg>
